# xmcd
#
# Track frame offsets: 
#        150
#        12002
#        21992
#        32795
#        48991
#        57705
#        65402
#        75365
#        86423
#        94123
#        104522
#        113935
#        123752
#        134421
#        150243
#        157664
#        167993
#        177936
#        189405
#        201376
#        223203
#        231358
#        243290
#        256399
#
# Disc length: 3569 seconds
#
# Revision: 0
# Processed by: cddbd v1.5.2PL0 Copyright (c) Steve Scherf et al.
# Submitted via: ExactAudioCopy v1.0b1
#
DISCID=420def18
DTITLE=Duane Eddy - Have Twangy Guitar Will Travel and Especially For Yo
DTITLE=u
DYEAR=1900
DGENRE=Rock
TTITLE0=The Lonesome Road
TTITLE1=I Almost Lost My Mind
TTITLE2=Rebel Rouser
TTITLE3=Three-30-Three Blues
TTITLE4=Cannon Ball
TTITLE5=The Lonely One
TTITLE6=Detour
TTITLE7=Stalkin'
TTITLE8=Ramrod
TTITLE9=Any Time
TTITLE10=Movin' 'N' Groovin'
TTITLE11=Loving You
TTITLE12=Peter Gunn
TTITLE13=Only Child
TTITLE14=Lover
TTITLE15=Fuzz
TTITLE16="Yep!"
TTITLE17=Along The Navajo Trail
TTITLE18=Just Because
TTITLE19=Quiniela
TTITLE20=Trouble In Mind
TTITLE21=Tuxedo Junction
TTITLE22=Hard Times
TTITLE23=Along Came Linda
EXTD=
EXTT0=
EXTT1=
EXTT2=
EXTT3=
EXTT4=
EXTT5=
EXTT6=
EXTT7=
EXTT8=
EXTT9=
EXTT10=
EXTT11=
EXTT12=
EXTT13=
EXTT14=
EXTT15=
EXTT16=
EXTT17=
EXTT18=
EXTT19=
EXTT20=
EXTT21=
EXTT22=
EXTT23=
PLAYORDER=
